<svg width="1584" height="396" viewBox="0 0 1584 396" fill="none" xmlns="http://www.w3.org/2000/svg">
<rect width="1584" height="396" fill="#F5F5F5"/>
<g id="Awesome banner" clip-path="url(#clip0_0_1)">
<rect width="1584" height="396" fill="url(#paint0_linear_0_1)"/>
<ellipse id="Ellipse 2" cx="323" cy="64" rx="285" ry="288" fill="url(#paint1_linear_0_1)" fill-opacity="0.1"/>
<g id="copyright">
<path d="M75.95 334.52L72.30 334.52L72.30 311.16L77.20 311.16L83.70 330.04Q83.60 329.02 83.50 327.62Q83.41 326.23 83.33 324.79Q83.25 323.35 83.25 322.23L83.25 311.16L86.90 311.16L86.90 334.52L82 334.52L75.57 315.64Q75.63 316.57 75.73 317.88Q75.82 319.19 75.89 320.57Q75.95 321.94 75.95 323.10L75.95 334.52M98.80 334.84Q96.46 334.84 94.67 333.96Q92.88 333.08 91.89 331.53Q90.90 329.98 90.90 327.93Q90.90 325.78 92.13 324.18Q93.36 322.58 95.34 322.17L95.34 322.10Q93.65 321.75 92.61 320.38Q91.57 319 91.57 317.11Q91.57 315.26 92.48 313.85Q93.39 312.44 95.02 311.64Q96.66 310.84 98.80 310.84Q100.94 310.84 102.59 311.64Q104.24 312.44 105.15 313.85Q106.06 315.26 106.06 317.11Q106.06 319 105.01 320.38Q103.95 321.75 102.26 322.10L102.26 322.17Q104.24 322.58 105.47 324.18Q106.70 325.78 106.70 327.93Q106.70 329.98 105.71 331.53Q104.72 333.08 102.93 333.96Q101.14 334.84 98.80 334.84M98.80 320.73Q100.30 320.73 101.23 319.82Q102.16 318.90 102.16 317.46Q102.16 315.99 101.23 315.08Q100.30 314.17 98.80 314.17Q97.30 314.17 96.37 315.08Q95.44 315.99 95.44 317.46Q95.44 318.90 96.37 319.82Q97.30 320.73 98.80 320.73M98.80 331.45Q100.56 331.45 101.68 330.42Q102.80 329.40 102.80 327.74Q102.80 326.04 101.68 325Q100.56 323.96 98.80 323.96Q97.04 323.96 95.92 325Q94.80 326.04 94.80 327.74Q94.80 329.40 95.92 330.42Q97.04 331.45 98.80 331.45M114.35 334.52L110.70 334.52L110.70 311.16L115.60 311.16L122.10 330.04Q122 329.02 121.90 327.62Q121.81 326.23 121.73 324.79Q121.65 323.35 121.65 322.23L121.65 311.16L125.30 311.16L125.30 334.52L120.40 334.52L113.97 315.64Q114.03 316.57 114.13 317.88Q114.22 319.19 114.29 320.57Q114.35 321.94 114.35 323.10" fill="white" fill-opacity="0.9"/>
<path d="M161.48 325.24L151.24 325.24L151.24 322.68L161.48 322.68" fill="white" fill-opacity="0.9"/>
<path d="M195.02 334.84Q191.82 334.84 189.96 333.05Q188.11 331.26 188.11 328.12L188.11 317.56Q188.11 314.42 189.96 312.63Q191.82 310.84 195.02 310.84Q198.15 310.84 200.01 312.65Q201.87 314.46 201.87 317.56L198.99 317.56Q198.99 315.58 197.95 314.50Q196.91 313.43 195.02 313.43Q193.13 313.43 192.06 314.50Q190.99 315.58 190.99 317.56L190.99 328.12Q190.99 330.10 192.06 331.18Q193.13 332.25 195.02 332.25Q196.91 332.25 197.95 331.18Q198.99 330.10 198.99 328.12L201.87 328.12Q201.87 331.22 200.01 333.03Q198.15 334.84 195.02 334.84" fill="white" fill-opacity="0.9"/>
<path d="M213.96 334.84Q210.83 334.84 209 333.02Q207.18 331.19 207.18 327.80L207.18 317.88Q207.18 314.49 209 312.66Q210.83 310.84 213.96 310.84Q217.10 310.84 218.92 312.66Q220.75 314.49 220.75 317.85L220.75 327.80Q220.75 331.19 218.92 333.02Q217.10 334.84 213.96 334.84M213.96 332.25Q215.85 332.25 216.86 331.18Q217.87 330.10 217.87 328.12L217.87 317.56Q217.87 315.58 216.86 314.50Q215.85 313.43 213.96 313.43Q212.11 313.43 211.08 314.50Q210.06 315.58 210.06 317.56L210.06 328.12Q210.06 330.10 211.08 331.18Q212.11 332.25 213.96 332.25" fill="white" fill-opacity="0.9"/>
<path d="M228.65 334.52L225.87 334.52L225.87 311.16L230.12 311.16L233.10 321.27L236.20 311.16L240.46 311.16L240.46 334.52L237.67 334.52L237.67 323.48Q237.67 321.91 237.72 319.88Q237.77 317.85 237.87 315.77Q237.96 313.69 238.09 312.02L234.31 324.09L231.82 324.09L228.20 312.31Q228.46 314.68 228.55 317.50Q228.65 320.31 228.65 323.48" fill="white" fill-opacity="0.9"/>
<path d="M247.85 334.52L245.07 334.52L245.07 311.16L249.32 311.16L252.30 321.27L255.40 311.16L259.66 311.16L259.66 334.52L256.87 334.52L256.87 323.48Q256.87 321.91 256.92 319.88Q256.97 317.85 257.07 315.77Q257.16 313.69 257.29 312.02L253.51 324.09L251.02 324.09L247.40 312.31Q247.66 314.68 247.75 317.50Q247.85 320.31 247.85 323.48" fill="white" fill-opacity="0.9"/>
<path d="M271.56 334.84Q268.30 334.84 266.57 333.03Q264.84 331.22 264.84 328.12L264.84 311.16L267.72 311.16L267.72 328.12Q267.72 330.04 268.67 331.16Q269.61 332.28 271.56 332.28Q273.48 332.28 274.44 331.16Q275.40 330.04 275.40 328.12L275.40 311.16L278.28 311.16L278.28 328.12Q278.28 331.26 276.57 333.05Q274.86 334.84 271.56 334.84" fill="white" fill-opacity="0.9"/>
<path d="M286.83 334.52L284.04 334.52L284.04 311.16L287.88 311.16L295.02 331.16Q294.95 330.36 294.87 329.19Q294.79 328.02 294.75 326.73Q294.70 325.43 294.70 324.28L294.70 311.16L297.48 311.16L297.48 334.52L293.64 334.52L286.54 314.52Q286.60 315.29 286.67 316.46Q286.73 317.62 286.78 318.92Q286.83 320.22 286.83 321.40" fill="white" fill-opacity="0.9"/>
<path d="M316.20 334.52L303.72 334.52L303.72 331.90L308.49 331.90L308.49 313.78L303.72 313.78L303.72 311.16L316.20 311.16L316.20 313.78L311.43 313.78L311.43 331.90L316.20 331.90" fill="white" fill-opacity="0.9"/>
<path d="M330.60 334.52L327.72 334.52L327.72 313.78L321.32 313.78L321.32 311.16L337 311.16L337 313.78L330.60 313.78" fill="white" fill-opacity="0.9"/>
<path d="M349.80 334.52L346.92 334.52L346.92 325.78L339.88 311.16L342.95 311.16L347.50 320.76Q347.88 321.56 348.11 322.12Q348.33 322.68 348.39 322.94Q348.46 322.68 348.70 322.12Q348.94 321.56 349.32 320.76L353.87 311.16L356.84 311.16L349.80 325.78" fill="white" fill-opacity="0.9"/>
<path d="M382.83 334.52L380.04 334.52L380.04 311.16L383.88 311.16L391.02 331.16Q390.95 330.36 390.87 329.19Q390.79 328.02 390.75 326.73Q390.70 325.43 390.70 324.28L390.70 311.16L393.48 311.16L393.48 334.52L389.64 334.52L382.54 314.52Q382.60 315.29 382.67 316.46Q382.73 317.62 382.78 318.92Q382.83 320.22 382.83 321.40" fill="white" fill-opacity="0.9"/>
<path d="M405.96 334.84Q402.83 334.84 401 333.02Q399.18 331.19 399.18 327.80L399.18 317.88Q399.18 314.49 401 312.66Q402.83 310.84 405.96 310.84Q409.10 310.84 410.92 312.66Q412.75 314.49 412.75 317.85L412.75 327.80Q412.75 331.19 410.92 333.02Q409.10 334.84 405.96 334.84M405.96 332.25Q407.85 332.25 408.86 331.18Q409.87 330.10 409.87 328.12L409.87 317.56Q409.87 315.58 408.86 314.50Q407.85 313.43 405.96 313.43Q404.11 313.43 403.08 314.50Q402.06 315.58 402.06 317.56L402.06 328.12Q402.06 330.10 403.08 331.18Q404.11 332.25 405.96 332.25" fill="white" fill-opacity="0.9"/>
<path d="M424.55 334.52L418.51 334.52L418.51 311.16L424.55 311.16Q426.83 311.16 428.47 312.02Q430.12 312.89 431.03 314.46Q431.95 316.02 431.95 318.17L431.95 327.48Q431.95 329.62 431.03 331.21Q430.12 332.79 428.47 333.66Q426.83 334.52 424.55 334.52M421.39 313.72L421.39 331.96L424.55 331.96Q426.67 331.96 427.87 330.78Q429.07 329.59 429.07 327.48L429.07 318.17Q429.07 316.09 427.87 314.90Q426.67 313.72 424.55 313.72" fill="white" fill-opacity="0.9"/>
<path d="M451.40 334.52L437.96 334.52L437.96 311.16L451.40 311.16L451.40 313.78L440.81 313.78L440.81 321.02L450.28 321.02L450.28 323.58L440.81 323.58L440.81 331.90L451.40 331.90" fill="white" fill-opacity="0.9"/>
<path d="M463.69 334.84Q460.30 334.84 458.28 333.05Q456.27 331.26 456.27 328.12L459.15 328.12Q459.15 330.07 460.39 331.18Q461.64 332.28 463.69 332.28Q465.67 332.28 466.86 331.13Q468.04 329.98 468.04 328.12Q468.04 326.71 467.29 325.67Q466.54 324.63 465.13 324.25L461.58 323.26Q459.37 322.62 458.11 320.97Q456.84 319.32 456.84 317.08Q456.84 315.22 457.67 313.82Q458.51 312.41 460.01 311.62Q461.51 310.84 463.47 310.84Q465.45 310.84 466.97 311.62Q468.49 312.41 469.35 313.80Q470.22 315.19 470.22 317.02L467.34 317.02Q467.34 315.42 466.25 314.41Q465.16 313.40 463.47 313.40Q461.77 313.40 460.71 314.41Q459.66 315.42 459.66 317.02Q459.66 318.30 460.35 319.21Q461.03 320.12 462.28 320.47L465.93 321.50Q468.27 322.14 469.56 323.91Q470.86 325.69 470.86 328.12Q470.86 331.19 468.91 333.02Q466.95 334.84 463.69 334.84" fill="white" fill-opacity="0.9"/>
</g>
<path d="M73.41 197.64L71.20 197.64L75.76 180.12L78.66 180.12L83.20 197.64L81.02 197.64L79.86 192.98L74.56 192.98L73.41 197.64M76.34 185.74L74.99 191.16L79.41 191.16L78.06 185.76Q77.68 184.22 77.46 183.19Q77.25 182.16 77.20 181.85Q77.15 182.16 76.94 183.19Q76.72 184.22 76.34 185.74" fill="white" fill-opacity="0.7"/>
<path d="M91.58 197.88Q89.30 197.88 87.93 196.52Q86.56 195.17 86.56 192.84L86.56 184.44L88.72 184.44L88.72 192.84Q88.72 194.28 89.49 195.13Q90.26 195.98 91.58 195.98Q92.92 195.98 93.70 195.13Q94.48 194.28 94.48 192.84L94.48 184.44L96.64 184.44L96.64 192.84Q96.64 195.17 95.25 196.52Q93.86 197.88 91.58 197.88" fill="white" fill-opacity="0.7"/>
<path d="M111.16 197.64L107.32 197.64Q105.69 197.64 104.70 196.69Q103.72 195.74 103.72 194.16L103.72 186.41L99.93 186.41L99.93 184.44L103.72 184.44L103.72 180.72L105.88 180.72L105.88 184.44L111.28 184.44L111.28 186.41L105.88 186.41L105.88 194.16Q105.88 194.83 106.28 195.25Q106.67 195.67 107.32 195.67L111.16 195.67" fill="white" fill-opacity="0.7"/>
<path d="M120.40 197.83Q118.02 197.83 116.62 196.44Q115.22 195.05 115.22 192.55L115.22 189.53Q115.22 187.01 116.61 185.63QNaN 184.25 120.40 184.25Q122.80 184.25 124.19 185.63Q125.58 187.01 125.58 189.53L125.58 192.55Q125.58 195.05 124.18 196.44Q122.78 197.83 120.40 197.83M120.40 195.91Q121.82 195.91 122.62 195.12Q123.42 194.33 123.42 192.79L123.42 189.29Q123.42 187.75 122.62 186.96Q121.82 186.17 120.40 186.17Q119.01 186.17 118.19 186.96Q117.38 187.75 117.38 189.29L117.38 192.79Q117.38 194.33 118.19 195.12Q119.01 195.91 120.40 195.91" fill="white" fill-opacity="0.7"/>
<path d="M138.64 190.68L130.96 190.68L130.96 188.76L138.64 188.76" fill="white" fill-opacity="0.7"/>
<path d="M149.56 201.96L145.86 201.96L145.86 199.99L149.58 199.99Q150.71 199.99 151.36 199.36Q152.01 198.72 152.01 197.64L152.01 196.44L152.06 194.28L151.98 194.28Q151.79 195.46 150.86 196.09Q149.92 196.73 148.50 196.73Q146.46 196.73 145.29 195.43Q144.11 194.14 144.11 191.88L144.11 189.10Q144.11 186.84 145.29 185.52Q146.46 184.20 148.50 184.20Q149.92 184.20 150.86 184.87Q151.79 185.54 151.98 186.72L152.03 186.72L152.03 184.44L154.17 184.44L154.17 197.64Q154.17 199.63 152.93 200.80Q151.70 201.96 149.56 201.96M149.15 194.93Q150.50 194.93 151.26 194.09Q152.03 193.25 152.03 191.76L152.03 189.24Q152.03 187.75 151.26 186.91Q150.50 186.07 149.15 186.07Q147.78 186.07 147.03 186.86Q146.27 187.66 146.27 189L146.27 192Q146.27 193.34 147.03 194.14Q147.78 194.93 149.15 194.93" fill="white" fill-opacity="0.7"/>
<path d="M163.60 197.88Q161.27 197.88 159.84 196.48Q158.42 195.07 158.42 192.60L158.42 189.48Q158.42 187.01 159.84 185.60Q161.27 184.20 163.60 184.20Q165.16 184.20 166.32 184.82Q167.49 185.45 168.14 186.58Q168.78 187.70 168.78 189.24L168.78 191.59L160.53 191.59L160.53 192.84Q160.53 194.30 161.37 195.16Q162.21 196.01 163.60 196.01Q164.80 196.01 165.58 195.54Q166.36 195.07 166.53 194.28L168.69 194.28Q168.47 195.94 167.08 196.91Q165.69 197.88 163.60 197.88M160.53 189.24L160.53 189.91L166.67 189.91L166.67 189.24Q166.67 187.68 165.87 186.83Q165.06 185.98 163.60 185.98Q162.14 185.98 161.33 186.83Q160.53 187.68 160.53 189.24" fill="white" fill-opacity="0.7"/>
<path d="M175.17 197.64L173.01 197.64L173.01 184.44L175.17 184.44L175.17 186.96L175.19 186.96Q175.36 185.64 176.27 184.92Q177.18 184.20 178.70 184.20Q180.69 184.20 181.86 185.42Q183.04 186.65 183.04 188.76L183.04 197.64L180.88 197.64L180.88 189.14Q180.88 187.63 180.12 186.83Q179.37 186.02 178.07 186.02Q176.73 186.02 175.95 186.86Q175.17 187.70 175.17 189.24" fill="white" fill-opacity="0.7"/>
<path d="M192.40 197.88Q190.07 197.88 188.64 196.48Q187.22 195.07 187.22 192.60L187.22 189.48Q187.22 187.01 188.64 185.60Q190.07 184.20 192.40 184.20Q193.96 184.20 195.12 184.82Q196.29 185.45 196.94 186.58Q197.58 187.70 197.58 189.24L197.58 191.59L189.33 191.59L189.33 192.84Q189.33 194.30 190.17 195.16Q191.01 196.01 192.40 196.01Q193.60 196.01 194.38 195.54Q195.16 195.07 195.33 194.28L197.49 194.28Q197.27 195.94 195.88 196.91Q194.49 197.88 192.40 197.88M189.33 189.24L189.33 189.91L195.47 189.91L195.47 189.24Q195.47 187.68 194.67 186.83Q193.86 185.98 192.40 185.98Q190.94 185.98 190.13 186.83Q189.33 187.68 189.33 189.24" fill="white" fill-opacity="0.7"/>
<path d="M204.45 197.64L202.29 197.64L202.29 184.44L204.45 184.44L204.45 186.96L204.50 186.96Q204.66 185.69 205.58 184.94Q206.49 184.20 208.02 184.20Q210.09 184.20 211.20 185.44Q212.32 186.67 212.32 188.95L212.32 190.08L210.16 190.08L210.16 188.95Q210.16 186.07 207.35 186.07Q205.94 186.07 205.19 186.89Q204.45 187.70 204.45 189.24" fill="white" fill-opacity="0.7"/>
<path d="M220.05 197.88Q218.01 197.88 216.81 196.74Q215.61 195.60 215.61 193.75Q215.61 192.53 216.16 191.62Q216.71 190.70 217.70 190.19Q218.68 189.67 219.95 189.67L224.03 189.67L224.03 188.64Q224.03 186.07 221.22 186.07Q219.98 186.07 219.21 186.53Q218.44 186.98 218.39 187.80L216.23 187.80Q216.35 186.24 217.68 185.22Q219.02 184.20 221.22 184.20Q223.62 184.20 224.91 185.35Q226.19 186.50 226.19 188.57L226.19 197.64L224.06 197.64L224.06 195.24L224.01 195.24Q223.82 196.46 222.78 197.17Q221.75 197.88 220.05 197.88M220.58 196.06Q222.16 196.06 223.10 195.29Q224.03 194.52 224.03 193.20L224.03 191.35L220.19 191.35Q219.14 191.35 218.48 191.99Q217.82 192.62 217.82 193.68Q217.82 194.78 218.55 195.42Q219.28 196.06 220.58 196.06" fill="white" fill-opacity="0.7"/>
<path d="M240.76 197.64L236.92 197.64Q235.29 197.64 234.30 196.69Q233.32 195.74 233.32 194.16L233.32 186.41L229.53 186.41L229.53 184.44L233.32 184.44L233.32 180.72L235.48 180.72L235.48 184.44L240.88 184.44L240.88 186.41L235.48 186.41L235.48 194.16Q235.48 194.83 235.88 195.25Q236.27 195.67 236.92 195.67L240.76 195.67" fill="white" fill-opacity="0.7"/>
<path d="MNaN 197.88Q247.67 197.88 246.24 196.48Q244.82 195.07 244.82 192.60L244.82 189.48Q244.82 187.01 246.24 185.60Q247.67 184.20 NaN 184.20Q251.56 184.20 252.72 184.82Q253.89 185.45 254.54 186.58Q255.18 187.70 255.18 189.24L255.18 191.59L246.93 191.59L246.93 192.84Q246.93 194.30 247.77 195.16Q248.61 196.01 NaN 196.01Q251.20 196.01 251.98 195.54Q252.76 195.07 252.93 194.28L255.09 194.28Q254.87 195.94 253.48 196.91Q252.09 197.88 NaN 197.88M246.93 189.24L246.93 189.91L253.07 189.91L253.07 189.24Q253.07 187.68 252.27 186.83Q251.46 185.98 NaN 185.98Q248.54 185.98 247.73 186.83Q246.93 187.68 246.93 189.24" fill="white" fill-opacity="0.7"/>
<path d="M263.63 197.88Q261.66 197.88 260.48 196.56Q259.29 195.24 259.29 192.98L259.29 189.12Q259.29 186.84 260.46 185.52Q261.64 184.20 263.63 184.20Q265.12 184.20 266.09 184.94Q267.06 185.69 267.26 186.96L267.28 186.96L267.23 183.96L267.23 180.12L269.39 180.12L269.39 197.64L267.23 197.64L267.23 195.12L267.21 195.12Q267.04 196.42 266.08 197.15Q265.12 197.88 263.63 197.88M264.35 196.01Q265.70 196.01 266.46 195.17Q267.23 194.33 267.23 192.84L267.23 189.24Q267.23 187.75 266.46 186.91Q265.70 186.07 264.35 186.07Q262.98 186.07 262.22 186.78Q261.45 187.49 261.45 189.12L261.45 192.96Q261.45 194.57 262.22 195.29Q262.98 196.01 264.35 196.01" fill="white" fill-opacity="0.7"/>
<path d="M293.20 197.88Q290.85 197.88 289.48 196.51Q288.11 195.14 288.11 192.60L288.11 185.16Q288.11 182.62 289.48 181.25Q290.85 179.88 293.20 179.88Q295.55 179.88 296.92 181.25Q298.29 182.62 298.29 185.14L298.29 192.60Q298.29 195.14 296.92 196.51Q295.55 197.88 293.20 197.88M293.20 195.94Q294.62 195.94 295.37 195.13Q296.13 194.33 296.13 192.84L296.13 184.92Q296.13 183.43 295.37 182.63Q294.62 181.82 293.20 181.82Q291.81 181.82 291.04 182.63Q290.27 183.43 290.27 184.92L290.27 192.84Q290.27 194.33 291.04 195.13Q291.81 195.94 293.20 195.94" fill="white" fill-opacity="0.7"/>
<path d="M304.77 201.96L302.61 201.96L302.61 184.44L304.77 184.44L304.77 186.96L304.79 186.96Q304.96 185.66 305.92 184.93Q306.88 184.20 308.37 184.20Q310.36 184.20 311.54 185.51Q312.71 186.82 312.71 189.10L312.71 192.96Q312.71 195.24 311.54 196.56Q310.36 197.88 308.37 197.88Q306.88 197.88 305.92 197.14Q304.96 196.39 304.79 195.12L304.72 195.12L304.77 198.12L304.77 201.96M307.65 196.01Q309.02 196.01 309.78 195.29Q310.55 194.57 310.55 192.96L310.55 189.12Q310.55 187.49 309.78 186.78Q309.02 186.07 307.65 186.07Q306.33 186.07 305.55 186.91Q304.77 187.75 304.77 189.24L304.77 192.84Q304.77 194.33 305.55 195.17Q306.33 196.01 307.65 196.01" fill="white" fill-opacity="0.7"/>
<path d="M322 197.88Q319.67 197.88 318.24 196.48Q316.82 195.07 316.82 192.60L316.82 189.48Q316.82 187.01 318.24 185.60Q319.67 184.20 322 184.20Q323.56 184.20 324.72 184.82Q325.89 185.45 326.54 186.58Q327.18 187.70 327.18 189.24L327.18 191.59L318.93 191.59L318.93 192.84Q318.93 194.30 319.77 195.16Q320.61 196.01 322 196.01Q323.20 196.01 323.98 195.54Q324.76 195.07 324.93 194.28L327.09 194.28Q326.87 195.94 325.48 196.91Q324.09 197.88 322 197.88M318.93 189.24L318.93 189.91L325.07 189.91L325.07 189.24Q325.07 187.68 324.27 186.83Q323.46 185.98 322 185.98Q320.54 185.98 319.73 186.83Q318.93 187.68 318.93 189.24" fill="white" fill-opacity="0.7"/>
<path d="M333.57 197.64L331.41 197.64L331.41 184.44L333.57 184.44L333.57 186.96L333.59 186.96Q333.76 185.64 334.67 184.92Q335.58 184.20 337.10 184.20Q339.09 184.20 340.26 185.42Q341.44 186.65 341.44 188.76L341.44 197.64L339.28 197.64L339.28 189.14Q339.28 187.63 338.52 186.83Q337.77 186.02 336.47 186.02Q335.13 186.02 334.35 186.86Q333.57 187.70 333.57 189.24" fill="white" fill-opacity="0.7"/>
<path d="M347.01 197.64L344.80 197.64L349.36 180.12L352.26 180.12L356.80 197.64L354.62 197.64L353.46 192.98L348.16 192.98L347.01 197.64M349.94 185.74L348.59 191.16L353.01 191.16L351.66 185.76Q351.28 184.22 351.06 183.19Q350.85 182.16 350.80 181.85Q350.75 182.16 350.54 183.19Q350.32 184.22 349.94 185.74" fill="white" fill-opacity="0.7"/>
<path d="M362.37 197.64L360.21 197.64L360.21 180.12L365.85 180.12Q368.30 180.12 369.75 181.52Q371.20 182.93 371.20 185.28Q371.20 187.63 369.75 189.04Q368.30 190.44 365.85 190.44L362.37 190.44L362.37 197.64M362.37 182.06L362.37 188.50L365.85 188.50Q367.26 188.50 368.12 187.62Q368.97 186.74 368.97 185.28Q368.97 183.79 368.12 182.93Q367.26 182.06 365.85 182.06" fill="white" fill-opacity="0.7"/>
<path d="M384.28 197.64L374.92 197.64L374.92 195.67L378.50 195.67L378.50 182.09L374.92 182.09L374.92 180.12L384.28 180.12L384.28 182.09L380.70 182.09L380.70 195.67L384.28 195.67" fill="white" fill-opacity="0.7"/>
<path d="M408.93 197.83L407.87 197.83Q405.66 197.83 404.45 196.84Q403.24 195.84 403.24 194.02L405.40 194.02Q405.40 194.93 406.05 195.44Q406.70 195.96 407.87 195.96L408.93 195.96Q410.13 195.96 410.79 195.43Q411.45 194.90 411.45 193.94Q411.45 192.24 409.89 192.02L406.24 191.50Q404.90 191.30 404.15 190.38Q403.41 189.46 403.41 187.94Q403.41 186.22 404.60 185.23Q405.78 184.25 407.87 184.25L408.93 184.25Q410.85 184.25 412.06 185.20Q413.27 186.14 413.37 187.68L411.18 187.68Q411.14 186.98 410.52 186.53Q409.91 186.07 408.93 186.07L407.87 186.07Q406.77 186.07 406.14 186.58Q405.52 187.08 405.52 187.94Q405.52 189.34 406.79 189.53L410.20 190.01Q413.56 190.49 413.56 193.94Q413.56 195.79 412.35 196.81Q411.14 197.83 408.93 197.83" fill="white" fill-opacity="0.7"/>
<path d="M422.99 197.88Q420.59 197.88 419.15 196.54Q417.71 195.19 417.71 192.84L417.71 189.24Q417.71 186.89 419.15 185.54Q420.59 184.20 422.99 184.20Q425.27 184.20 426.68 185.42Q428.08 186.65 428.15 188.76L425.99 188.76Q425.92 187.49 425.13 186.80Q424.34 186.12 422.99 186.12Q421.58 186.12 420.72 186.92Q419.87 187.73 419.87 189.22L419.87 192.84Q419.87 194.33 420.72 195.14Q421.58 195.96 422.99 195.96Q424.34 195.96 425.13 195.26Q425.92 194.57 425.99 193.32L428.15 193.32Q428.08 195.43 426.68 196.66Q425.27 197.88 422.99 197.88" fill="white" fill-opacity="0.7"/>
<path d="M434.37 197.64L432.21 197.64L432.21 180.12L434.37 180.12L434.37 186.96L434.39 186.96Q434.56 185.64 435.47 184.92Q436.38 184.20 437.90 184.20Q439.89 184.20 441.06 185.42Q442.24 186.65 442.24 188.76L442.24 197.64L440.08 197.64L440.08 189.12Q440.08 187.63 439.32 186.83Q438.57 186.02 437.27 186.02Q435.93 186.02 435.15 186.86Q434.37 187.70 434.37 189.24" fill="white" fill-opacity="0.7"/>
<path d="M451.60 197.88Q449.27 197.88 447.84 196.48Q446.42 195.07 446.42 192.60L446.42 189.48Q446.42 187.01 447.84 185.60Q449.27 184.20 451.60 184.20Q453.16 184.20 454.32 184.82Q455.49 185.45 456.14 186.58Q456.78 187.70 456.78 189.24L456.78 191.59L448.53 191.59L448.53 192.84Q448.53 194.30 449.37 195.16Q450.21 196.01 451.60 196.01Q452.80 196.01 453.58 195.54Q454.36 195.07 454.53 194.28L456.69 194.28Q456.47 195.94 455.08 196.91Q453.69 197.88 451.60 197.88M448.53 189.24L448.53 189.91L454.67 189.91L454.67 189.24Q454.67 187.68 453.87 186.83Q453.06 185.98 451.60 185.98Q450.14 185.98 449.33 186.83Q448.53 187.68 448.53 189.24" fill="white" fill-opacity="0.7"/>
<path d="M462.26 197.64L460.24 197.64L460.24 184.44L462.11 184.44L462.11 186.19L462.16 186.19Q462.28 185.30 462.87 184.75Q463.46 184.20 464.37 184.20Q465.23 184.20 465.83 184.70Q466.43 185.21 466.70 186.07L466.72 186.07Q466.89 185.21 467.48 184.70Q468.06 184.20 468.98 184.20Q470.25 184.20 471 185.15Q471.76 186.10 471.76 187.61L471.76 197.64L469.74 197.64L469.74 187.58Q469.74 186.79 469.36 186.32Q468.98 185.86 468.30 185.86Q467.66 185.86 467.27 186.31Q466.89 186.77 466.89 187.56L466.89 197.64L465.11 197.64L465.11 187.58Q465.11 186.79 464.73 186.32Q464.34 185.86 463.70 185.86Q463.02 185.86 462.64 186.31Q462.26 186.77 462.26 187.56" fill="white" fill-opacity="0.7"/>
<path d="M479.25 197.88Q477.21 197.88 476.01 196.74Q474.81 195.60 474.81 193.75Q474.81 192.53 475.36 191.62Q475.91 190.70 476.90 190.19Q477.88 189.67 479.15 189.67L483.23 189.67L483.23 188.64Q483.23 186.07 480.42 186.07Q479.18 186.07 478.41 186.53Q477.64 186.98 477.59 187.80L475.43 187.80Q475.55 186.24 476.88 185.22Q478.22 184.20 480.42 184.20Q482.82 184.20 484.11 185.35Q485.39 186.50 485.39 188.57L485.39 197.64L483.26 197.64L483.26 195.24L483.21 195.24Q483.02 196.46 481.98 197.17Q480.95 197.88 479.25 197.88M479.78 196.06Q481.36 196.06 482.30 195.29Q483.23 194.52 483.23 193.20L483.23 191.35L479.39 191.35Q478.34 191.35 477.68 191.99Q477.02 192.62 477.02 193.68Q477.02 194.78 477.75 195.42Q478.48 196.06 479.78 196.06" fill="white" fill-opacity="0.7"/>
<path d="M95.60 136.06L86.10 136.06L86.10 74.62L67.09 74.62L67.09 65.98L114.51 65.98L114.51 74.62L95.60 74.62L95.60 136.06M169.71 136.06L128.91 136.06L128.91 65.98L169.71 65.98L169.71 74.52L138.32 74.52L138.32 95.36L166.35 95.36L166.35 103.61L138.32 103.61L138.32 127.52L169.71 127.52L169.71 136.06M230.19 136.06L189.49 136.06L189.49 65.98L198.99 65.98L198.99 127.42L230.19 127.42L230.19 136.06M284.91 136.06L244.11 136.06L244.11 65.98L284.91 65.98L284.91 74.52L253.52 74.52L253.52 95.36L281.55 95.36L281.55 103.61L253.52 103.61L253.52 127.52L284.91 127.52L284.91 136.06M321.58 137.02Q311.89 137.02 306.18 131.60Q300.46 126.17 300.46 116.67L300.46 85.28Q300.46 75.87 306.18 70.44Q311.89 65.02 321.58 65.02Q331.18 65.02 336.90 70.49Q342.61 75.96 342.61 85.28L333.10 85.28Q333.10 79.61 330.03 76.54Q326.96 73.47 321.58 73.47Q316.11 73.47 313.04 76.54Q309.97 79.61 309.97 85.28L309.97 116.67Q309.97 122.43 313.04 125.50Q316.11 128.57 321.58 128.57Q326.96 128.57 330.03 125.50Q333.10 122.43 333.10 116.67L333.10 107.55L319.47 107.55L319.47 99.10L342.61 99.10L342.61 116.67Q342.61 126.08 336.90 131.55Q331.18 137.02 321.58 137.02M367.95 136.06L358.54 136.06L358.54 65.98L380.24 65.98Q386.67 65.98 391.47 68.52Q396.27 71.07 398.96 75.63Q401.65 80.19 401.65 86.33Q401.65 93.44 398.05 98.52Q394.45 103.61 388.50 105.72L402.61 136.06L392.14 136.06L378.80 106.78L367.95 106.78L367.95 136.06M367.95 74.43L367.95 98.33L380.24 98.33Q385.62 98.33 388.74 95.07Q391.86 91.80 391.86 86.43Q391.86 80.96 388.69 77.69Q385.52 74.43 380.24 74.43L367.95 74.43M421.71 136.06L412.02 136.06L430.16 65.98L442.74 65.98L460.78 136.06L451.09 136.06L446.67 117.82L426.13 117.82L421.71 136.06M433.14 88.92L428.05 109.95L444.75 109.95L439.76 89.02Q438.32 83.26 437.46 79.23Q436.59 75.20 436.40 73.76Q436.21 75.20 435.34 79.23Q434.48 83.26 433.14 88.92M480.75 136.06L471.73 136.06L471.73 65.98L485.17 65.98L493.81 96.22L502.83 65.98L516.37 65.98L516.37 136.06L507.25 136.06L507.25 103.90Q507.25 98.81 507.44 92.62Q507.63 86.43 507.97 80.24Q508.30 74.04 508.69 69.05L497.74 104.96L489.68 104.96L479.12 69.92Q479.98 76.92 480.37 85.52Q480.75 94.11 480.75 103.90" fill="url(#paint2_linear_0_1)"/>
<g id="Group 1">
<rect id="Rectangle 1" x="26" y="168" width="12" height="184" rx="5" fill="url(#paint3_linear_0_1)" fill-opacity="0.9"/>
</g>
<g id="Group 1_2">
<rect id="Rectangle 2" x="26" y="38" width="12" height="119" rx="5" fill="url(#paint4_linear_0_1)" fill-opacity="0.9"/>
</g>
<ellipse id="Ellipse 1" cx="148.5" cy="573" rx="215.5" ry="214" fill="url(#paint5_linear_0_1)" fill-opacity="0.4"/>
<rect id="Rectangle 3" x="1229" y="48" width="300" height="300" rx="25" fill="#FFFBFB" fill-opacity="0.9"/>
<g id="placeholder-logo"><g transform="translate(1229,48) translate(0.0,60.0) scale(1.2000)"><g fill="#666666">
  <path d="m88.05,27.65c-3.15,4 -3.2,51.2 -0.05,54.35c2.75,2.75 71.7,3.15 74.45,0.45c2.85,-2.9 2.3,-53.85 -0.65,-55.9c-1.95,-1.35 -7.15,-1.55 -36.95,-1.55l-34.7,0l-2.1,2.65zm69.45,3.35c0.65,0 1,8.6 1,23.75l0,23.75l-33,0l-33,0l-0.25,-23c-0.15,-12.6 -0.1,-23.45 0.15,-24.1c0.35,-0.85 8.9,-1.05 32.25,-0.75c17.55,0.2 32.3,0.35 32.85,0.35z"/>
  <path d="m99.15,37.3c-6.85,7.35 4.25,17.35 11.4,10.25c1.35,-1.35 2.45,-3.65 2.45,-5.05c0,-6.45 -9.35,-9.95 -13.85,-5.2z"/>
  <path d="m135,42.5c-0.7,0.85 -5.25,5.15 -10.1,9.6l-8.85,8.1l-3.2,-3.2l-3.15,-3.15l-6.35,6.3c-5.55,5.5 -6.35,6.75 -6.35,10.05l0,3.8l28.5,0l28.5,0l0,-8.6l0,-8.55l-8.15,-7.7c-9.35,-8.85 -9.15,-8.7 -10.85,-6.65zm7.25,15.2c0.95,0.9 1.75,2.9 1.75,4.45c6.35,-5.05 4.75,-7.15 4.9,-11.55c0.95,0 0,0 0,0l-6.65,7.1z"/>
  <path d="m53.65,110.75c0.1,4.8 0.45,8.65 0.75,8.5c0.35,-0.15 1.3,-0.25 2.1,-0.25c1.1,0 1.5,-1.2 1.5,-4.75l0,-4.75l3.25,5c4.9,7.5 6.2,6.75 6.55,-3.75c0.25,-8.15 0.15,-8.75 -1.7,-8.75c-1.65,0 -2.05,0.8 -2.3,4.75l-0.3,4.75l-2.8,-4.75c-4.85,-8.25 -7.25,-6.9 -7.05,4z"/>
  <path d="m91,108.9c0,9.65 0.3,10.1 6.1,10.1c5.8,0 7.15,-2.65 1.65,-3.2l-3.25,-0.3l-0.3,-6.75c-0.25,-5.95 -0.55,-6.75 -2.25,-6.75c-1.75,0 -1.95,0.7 -1.95,6.9z"/>
  <path d="m151,102.45c0,0.25 1,2.15 2.25,4.2c1.2,2.1 2.45,5.8 2.75,8.25c0.65,5.9 4,6.95 4,1.25c0.05,-2.1 1.25,-5.85 2.95,-8.9l2.9,-5.25l-2.5,0c-1.8,0 -2.8,0.85 -3.75,3.1l-1.3,3.05l-1.25,-3.05c-1.1,-2.6 -6.05,-4.8 -6.05,-2.65z"/>
  <path d="m191,107.45c0,9.05 3.4,8.85 4.25,-0.2c0.45,-5 0.35,-5.25 -1.9,-5.25c-2.2,0 -2.35,0.4 -2.35,5.45z"/>
  <path d="m180.8,104.75c-1.3,5.35 0.65,13.6 3.45,14.35c2.3,0.6 2.75,0.4 2.75,-1.2c0,-1.05 -0.45,-1.9 -1,-1.9c-0.55,0 -1,-1.6 -1,-3.5c0,-1.95 0.45,-3.5 1,-3.5c0.55,0 1,-0.7 1,-1.5c0,-0.85 -0.45,-1.5 -1,-1.5c-0.55,0 -1,-0.7 -1,-1.5c0,-2.1 -3.65,-1.9 -4.2,0.25z"/>
  <path d="m71.55,106.55c-2.2,2.25 -2.05,9.7 0.3,11.8c4.5,4.1 10.15,0.75 10.15,-6.1c0,-4.85 -2,-7.25 -6,-7.25c-1.55,0 -3.55,0.7 -4.45,1.55zm6.25,5.8c0.25,3.05 0,3.65 -1.6,3.65c-2.3,0 -3.25,-2.65 -2.05,-5.85c1.25,-3.35 3.3,-2.1 3.65,2.2z"/>
  <path d="m105.75,106.1c-2.5,1.45 -2.45,9.95 0.1,12.25c4.3,3.9 10.15,0.35 10.15,-6.2c0,-6 -5.15,-9.05 -10.25,-6.05zm6.05,6.25c0.25,3.05 0,3.65 -1.6,3.65c-2.3,0 -3.25,-2.65 -2.05,-5.85c1.25,-3.35 3.3,-2.1 3.65,2.2z"/>
  <path d="m119.2,106.2c-3.8,3.8 -0.4,12.55 4.4,11.35c1.9,-0.45 2.45,-0.3 2.15,0.65c-0.25,0.7 -1.55,1.2 -2.85,1.1c-4.05,-0.3 -5.35,0.45 -3.85,2.25c0.85,1.05 2.6,1.45 5.35,1.25l4.1,-0.3l0.3,-8.75l0.3,-8.75l-4.35,0c-2.4,0 -4.9,0.55 -5.55,1.2zm6.6,4.45c0.4,2.85 -2.15,4.85 -3.75,2.95c-0.9,-1.1 -0.9,-2 -0.05,-3.6c1.35,-2.5 3.4,-2.15 3.8,0.65z"/>
  <path d="m133.55,106.55c-2.2,2.25 -2.05,9.7 0.3,11.8c4.5,4.1 10.15,0.75 10.15,-6.1c0,-4.85 -2,-7.25 -6,-7.25c-1.55,0 -3.55,0.7 -4.45,1.55zm6.25,5.8c0.25,3.05 0,3.65 -1.6,3.65c-2.3,0 -3.25,-2.65 -2.05,-5.85c1.25,-3.35 3.3,-2.1 3.65,2.2z"/>
  <path d="m167.65,106.85c-3.9,4.3 -0.75,13.15 4.7,13.15c2.4,0 5.65,-2.75 5.65,-4.85c0,-1.4 -2.65,-1.55 -3.5,-0.15c-0.95,1.55 -4.5,1.15 -4.5,-0.5c0,-1.1 1.1,-1.5 4,-1.5c3.15,0 4,-0.35 4,-1.8c0,-5.3 -6.85,-8.25 -10.35,-4.35z"/>
  <path d="m191,117.5c0,2.15 0.4,2.6 2.25,2.3c1.5,-0.2 2.25,-1 2.25,-2.3c0,-1.3 -0.75,-2.1 -2.25,-2.3c-1.85,-0.3 -2.25,0.15 -2.25,2.3z"/>
 </g></g></g>
</g>
<defs>
<linearGradient id="paint0_linear_0_1" x1="0" y1="198" x2="1584" y2="198" gradientUnits="userSpaceOnUse">
<stop stop-color="#3D052C"/>
<stop offset="1"/>
</linearGradient>
<linearGradient id="paint1_linear_0_1" x1="323" y1="-224" x2="323" y2="352" gradientUnits="userSpaceOnUse">
<stop stop-color="#28F6F2" stop-opacity="0.4"/>
<stop offset="1" stop-color="#17908E" stop-opacity="0.7"/>
</linearGradient>
<linearGradient id="paint2_linear_0_1" x1="148.5" y1="38" x2="148.5" y2="140" gradientUnits="userSpaceOnUse">
<stop stop-color="white"/>
<stop offset="1" stop-color="#999999"/>
</linearGradient>
<linearGradient id="paint3_linear_0_1" x1="38" y1="260" x2="26" y2="260" gradientUnits="userSpaceOnUse">
<stop stop-color="#D9D9D9"/>
<stop offset="1" stop-color="#737373"/>
</linearGradient>
<linearGradient id="paint4_linear_0_1" x1="38" y1="97.5" x2="26" y2="97.5" gradientUnits="userSpaceOnUse">
<stop stop-color="#D9D9D9"/>
<stop offset="1" stop-color="#737373"/>
</linearGradient>
<linearGradient id="paint5_linear_0_1" x1="27.5" y1="434.5" x2="148.5" y2="787" gradientUnits="userSpaceOnUse">
<stop stop-color="#2E21BC"/>
<stop offset="1" stop-color="#150F56"/>
</linearGradient>
<clipPath id="clip0_0_1">
<rect width="1584" height="396" fill="white"/>
</clipPath>
</defs>
</svg>
